<svg width="1920" height="1080" viewBox="0 0 1920 1080" xmlns="http://www.w3.org/2000/svg"><rect width="1920" height="1080" fill="#11488e"/><path d="M 0,1080 C 0,1080 0,180 0,180 C 139.5023923444976,203.73205741626793 279.0047846889952,227.46411483253587 396,215 C 512.9952153110048,202.53588516746413 607.4832535885168,153.8755980861244 741,162 C 874.5167464114832,170.1244019138756 1047.0622009569377,235.0334928229665 1193,229 C 1338.9377990430623,222.9665071770335 1458.267942583732,145.99043062200957 1575,126 C 1691.732057416268,106.00956937799042 1805.8660287081339,143.00478468899522 1920,180 C 1920,180 1920,1080 1920,1080 Z" fill="#032550" opacity="0.09999999999999999"/><path d="M 0,1080 C 0,1080 0,360 0,360 C 91.11961722488039,352.92822966507174 182.23923444976077,345.85645933014354 325,329 C 467.7607655502392,312.14354066985646 662.1626794258374,285.5023923444976 798,299 C 933.8373205741626,312.4976076555024 1011.11004784689,366.13397129186603 1131,394 C 1250.88995215311,421.86602870813397 1413.397129186603,423.9617224880383 1552,414 C 1690.602870813397,404.0382775119617 1805.3014354066986,382.01913875598086 1920,360 C 1920,360 1920,1080 1920,1080 Z" fill="#032550" opacity="0.19999999999999998"/><path d="M 0,1080 C 0,1080 0,540 0,540 C 167.37799043062205,537.3205741626793 334.7559808612441,534.6411483253588 455,547 C 575.2440191387559,559.3588516746412 648.3540669856458,586.755980861244 759,573 C 869.6459330143542,559.244019138756 1017.8277511961724,504.3349282296651 1154,507 C 1290.1722488038276,509.6650717703349 1414.3349282296651,569.9043062200957 1540,585 C 1665.6650717703349,600.0956937799043 1792.8325358851675,570.0478468899521 1920,540 C 1920,540 1920,1080 1920,1080 Z" fill="#032550" opacity="0.3"/><path d="M 0,1080 C 0,1080 0,720 0,720 C 120.7751196172249,721.6555023923445 241.5502392344498,723.3110047846889 378,716 C 514.4497607655502,708.6889952153111 666.5741626794259,692.4114832535887 813,680 C 959.4258373205741,667.5885167464113 1100.1531100478471,659.0430622009568 1212,653 C 1323.8468899521529,646.9569377990432 1406.8133971291866,643.4162679425839 1520,655 C 1633.1866028708134,666.5837320574161 1776.5933014354068,693.291866028708 1920,720 C 1920,720 1920,1080 1920,1080 Z" fill="#032550" opacity="0.39999999999999997"/><path d="M 0,1080 C 0,1080 0,900 0,900 C 117.87559808612443,935.8181818181819 235.75119617224885,971.6363636363637 363,958 C 490.24880382775115,944.3636363636363 626.8708133971292,881.2727272727273 749,884 C 871.1291866028708,886.7272727272727 978.7655502392345,955.2727272727271 1121,958 C 1263.2344497607655,960.7272727272729 1440.066985645933,897.6363636363637 1579,877 C 1717.933014354067,856.3636363636363 1818.9665071770335,878.1818181818181 1920,900 C 1920,900 1920,1080 1920,1080 Z" fill="#032550" opacity="0.49999999999999994"/></svg>